<svg xmlns="http://www.w3.org/2000/svg" viewBox="0 0 322.22 159.82"><defs><style>.a{fill:#e13529;}.b{fill:#fff;}.c{fill:#d6d5d5;}</style></defs><title>Space Station 13</title><path class="a" d="M235.58,34.71l.42-2,14.58-1-17.66,84.35-2,.14L248.2,33.83ZM239,123.06l20.74-99.43L230.12,25.7l-3.65,17.36,12.62-.89L222,124.24Z"/><path class="a" d="M263.72,53.1,281,51.6l2.57-12.26,15.56-1-4.48,20.09-15.36,1.35L275.68,77,291,76l-5.58,26-15.23,1.07,3.23-15.45-16.72,1.05-6.92,33.4,48.92-3.3L319.5,19.66l-49.31,3.15Zm12.66-23.35,33.73-2.42L292.89,112.2l-33.75,2.41,3.78-18.18,1.37-.09-3.47,16.6,31-2.09,8.56-43.08-19,1.23.33-1.58,19-1.28L308,29l-30.58,2.06L274,47.83l-1.34.09Z"/><path class="b" d="M80.1,54l-7.36.51,2.1-10.28,7.36-.52Zm-13-19.06-11.34,54,9.84-.68,5-23.78,17.19-1.2L94.13,33Z"/><path class="b" d="M114.84,42.62l8-.56-2.11,10.2-8,.57ZM95.78,87.34l9.83-.68,5-23.78,8-.56-5,23.77,9.84-.68,11.33-54-27.7,1.94Z"/><path class="b" d="M137.39,84.76,165,82.83l3.9-18.44-9.83.69-1.8,8.45-8,.56L156.46,40l8-.56L163,46.34l9.84-.69,3.52-16.84-27.62,1.93Z"/><path class="b" d="M213.54,36.37l2.1-10-25.37,1.78-11.34,54,25.37-1.77,2.1-10-15.53,1.08,2.92-13.86,10.74-.75,2.1-10-10.73.75L198,37.46Z"/><path class="c" d="M30.43,113.86,17,114.79,18.63,107l6.07-.42-1.07,5.13,7.36-.52,2.64-12.59-20.78,1.45L8.13,122.77l13.43-.94-2.2,10.27-6,.42,1.34-6.33-7.41.52L4.37,140.5l20.78-1.45Z"/><path class="c" d="M41,105.48l7.07-.49-6.91,32.94,7.36-.52,6.91-32.94,7.07-.49,1.58-7.47L42.56,98Z"/><path class="c" d="M77.21,110.47l1.57-7.63,6-.42-1.57,7.63Zm8,24.38,8.48-40.41L73,95.89,64.52,136.3l7.35-.52L75.64,118l6-.43-3.76,17.79Z"/><path class="c" d="M109.54,133.21l6.9-32.94,7.08-.5,1.57-7.46-21.51,1.5L102,101.28l7.08-.5-6.91,32.95Z"/><path class="c" d="M125.54,132.09l7.36-.51,8.48-40.41-7.36.52Z"/><path class="c" d="M157,97.5l6-.42-5.34,25.47-6,.42ZM142.76,131l20.73-1.44L172,89.1l-20.73,1.44Z"/><path class="c" d="M180.71,128.37,184.58,110,188,127.86l6.4-.45L202.83,87l-7.35.52-3.88,18.63L188.23,88l-6.4.44-8.48,40.41Z"/><path class="b" d="M18,73.34,14.07,91.78l27.78-1.94,7-33.68L31,57.42l2.18-10.36,8.11-.57-1.43,6.86,9.84-.69,3.52-16.84-12.27.86L16.17,38.29l8.25,4.22L19.1,68.08,37,66.83,34.12,80.55l-8,.56,1.81-8.46Z"/><path class="a" d="M28.87,20.23l-.79,3.87L321.39,3.94,322.22,0Z"/><path class="a" d="M0,159.82l293.31-20.17.83-3.93L.79,156Z"/></svg>