<svg xmlns="http://www.w3.org/2000/svg" xmlns:xlink="http://www.w3.org/1999/xlink" viewBox="0 0 420 420">
  <defs>
    <style>
      .cls-1 {
        stroke: #3e60ac;
        stroke-linejoin: round;
        stroke-width: 20px;
        fill: url(#radial-gradient);
      }

      .cls-2 {
        fill: #fff;
      }

      .cls-3 {
        fill: none;
        stroke: #fff;
        stroke-linecap: round;
        stroke-miterlimit: 10;
        stroke-width: 8px;
      }
    </style>
    <radialGradient id="radial-gradient" cx="210" cy="210" r="200" gradientUnits="userSpaceOnUse">
      <stop offset="0" stop-color="#175f9a"/>
      <stop offset="1" stop-color="#283374"/>
    </radialGradient>
  </defs>
  <g id="Base">
    <polygon id="Logo" class="cls-1" points="389.48 210 410 149.41 356.28 111.96 333.61 45.02 260.25 45.02 210 10 159.75 45.02 86.39 45.02 63.72 111.96 10 149.41 30.52 210 10 270.59 63.72 308.04 86.39 374.98 159.75 374.98 210 410 260.25 374.98 333.61 374.98 356.28 308.04 410 270.59 389.48 210"/>
  </g>
  <g id="Inscribed">
    <circle id="Left_Circle" data-name="Left Circle" class="cls-2" cx="49.21" cy="189.2" r="19.41"/>
    <circle id="Right_Circle" data-name="Right Circle" class="cls-2" cx="370.76" cy="189.2" r="19.41"/>
    <path id="Upper_Arc" data-name="Upper Arc" class="cls-3" d="M409.12,206.11a161.06,161.06,0,0,0-306.24,0" transform="translate(-46 -46)"/>
    <path id="Lower_Arc" data-name="Lower Arc" class="cls-3" d="M95.21,264.29a161,161,0,0,0,321.55.63" transform="translate(-46 -46)"/>
    <g id="S">
      <path class="cls-2" d="M221.34,164.49a3.15,3.15,0,0,1-1.47.9,3.6,3.6,0,0,1-1.57.05,8.65,8.65,0,0,1-1.72-.46c-.59-.2-1.24-.39-1.9-.58a63.49,63.49,0,0,0-8.73-1.66,87.21,87.21,0,0,0-18.62-.27,61.76,61.76,0,0,0-8.74,1.45,31.91,31.91,0,0,0-7.19,2.6,10.16,10.16,0,0,0-3.59,2.83,2.9,2.9,0,0,0-.39.88,4.63,4.63,0,0,0-.11.56,2.42,2.42,0,0,1,0,.37c0,.11,0,.23,0,.33a2.1,2.1,0,0,0,.1.54,2.51,2.51,0,0,0,.56.67,18.48,18.48,0,0,0,5.39,3,85.62,85.62,0,0,0,8.83,2.9c3.23.91,6.66,1.78,10.21,2.75,7.11,2,14.76,4.05,22.84,8.64a39.73,39.73,0,0,1,11.64,9.89,32.37,32.37,0,0,1,4.28,7.32,33.81,33.81,0,0,1,2.23,8l.15,1v.84a36.26,36.26,0,0,1-1.35,9.5,34.69,34.69,0,0,1-3.91,8.86,40.8,40.8,0,0,1-12.65,12.65,54.47,54.47,0,0,1-14.9,6.64,55.39,55.39,0,0,1-8,1.6c-1.38.17-2.81.28-4.28.33h-1.13c-.41,0-.63,0-.95,0l-1.81,0a76.89,76.89,0,0,1-15-1.85A45.16,45.16,0,0,1,161.4,252a28.56,28.56,0,0,1-8.65-5.93,24.3,24.3,0,0,1-2-2.34l-.47-.64-.29-.45-.56-.85c-.73-1.14-1.39-2.27-2-3.4a26.25,26.25,0,0,1-3-7,23,23,0,0,1,.34-8.1,24.36,24.36,0,0,1,1.2-4.22l.43-1,.53-1.06a12.66,12.66,0,0,1,1.3-2,3.27,3.27,0,0,1,4.59-.58h0l.51.41c2.08,1.64,3.75,3,5.34,4.4s3.18,2.73,4,4.35c.44.8.77,1.65,1.17,2.47s.83,1.62,1.26,2.39.89,1.52,1.35,2.22l.34.51.17.25,0,.05.24.28a8.51,8.51,0,0,0,2.51,1.57,25.3,25.3,0,0,0,4.37,1.39,56.17,56.17,0,0,0,10.89,1.17,28.65,28.65,0,0,0,5-.2,35.05,35.05,0,0,0,4.89-1,33.48,33.48,0,0,0,9.07-4.13,19.82,19.82,0,0,0,6.11-6.1,13.86,13.86,0,0,0,2-7.32l.11,1.45a11.2,11.2,0,0,0-2.28-5.3,18.3,18.3,0,0,0-5.42-4.37,50.52,50.52,0,0,0-8.18-3.55c-3-1.05-6.24-2-9.58-2.89s-6.81-1.8-10.39-2.8a108.12,108.12,0,0,1-11.14-3.69,51.16,51.16,0,0,1-5.93-2.83,32.22,32.22,0,0,1-6.07-4.37,24.17,24.17,0,0,1-5.25-6.9,23.46,23.46,0,0,1-2.36-8.57c-.05-.71-.06-1.4-.08-2.09s0-1.37.08-2.06a26.44,26.44,0,0,1,.7-4.18,24.14,24.14,0,0,1,3.55-7.8,27.92,27.92,0,0,1,5.46-5.81,35.51,35.51,0,0,1,6-3.9,52.4,52.4,0,0,1,12.12-4.32,81.28,81.28,0,0,1,11.85-1.84,107.61,107.61,0,0,1,23.26.61,82.31,82.31,0,0,1,11.69,2.4c1,.28,2,.59,3,1a13.87,13.87,0,0,1,3,1.37,12.06,12.06,0,0,1,2.79,2.34,10.33,10.33,0,0,1,2.15,3.72,2.39,2.39,0,0,1-.57,2.38Z" transform="translate(-46 -46)"/>
    </g>
    <g id="S-2" data-name="S">
      <path class="cls-2" d="M344.61,161.73a3.07,3.07,0,0,1-1.47.9,3.59,3.59,0,0,1-1.57.06,9.45,9.45,0,0,1-1.72-.47c-.59-.2-1.24-.39-1.9-.57a62,62,0,0,0-8.73-1.66,86.56,86.56,0,0,0-18.62-.27,60.36,60.36,0,0,0-8.74,1.45,31.91,31.91,0,0,0-7.19,2.6,10.15,10.15,0,0,0-3.59,2.82,3.13,3.13,0,0,0-.39.88,3.35,3.35,0,0,0-.1.56c0,.12,0,.25,0,.37s0,.24,0,.34a1.87,1.87,0,0,0,.1.53,2.32,2.32,0,0,0,.56.68,18.62,18.62,0,0,0,5.39,3,85.71,85.71,0,0,0,8.83,2.89c3.23.91,6.66,1.79,10.21,2.75,7.11,2,14.76,4.06,22.84,8.65a39.84,39.84,0,0,1,11.64,9.88,32.59,32.59,0,0,1,4.28,7.32,34,34,0,0,1,2.23,8l.15,1v.83a36.2,36.2,0,0,1-1.35,9.5,34.76,34.76,0,0,1-3.91,8.87,40.76,40.76,0,0,1-12.65,12.64A55.35,55.35,0,0,1,316,253.56a41.73,41.73,0,0,1-4.28.33l-1.13,0h-.95l-1.81,0a76.93,76.93,0,0,1-15-1.86,45.35,45.35,0,0,1-8.17-2.74,28.93,28.93,0,0,1-8.65-5.93,23.29,23.29,0,0,1-2-2.35l-.46-.64-.3-.44-.56-.86c-.73-1.14-1.39-2.26-2-3.39a26.17,26.17,0,0,1-3-7,23,23,0,0,1,.34-8.1,25.17,25.17,0,0,1,1.2-4.21l.43-1.05.53-1.06a13.12,13.12,0,0,1,1.3-2,3.29,3.29,0,0,1,4.59-.58l0,0,.51.41c2.08,1.63,3.75,3,5.34,4.39s3.18,2.74,4,4.35c.44.81.77,1.66,1.17,2.48s.83,1.61,1.26,2.39.89,1.52,1.35,2.22l.34.51.17.24,0,.06c.06.08.15.17.24.27a8.66,8.66,0,0,0,2.51,1.57,24.46,24.46,0,0,0,4.37,1.39,56.94,56.94,0,0,0,10.89,1.18,28.57,28.57,0,0,0,5-.21,34.32,34.32,0,0,0,14-5.18,19.69,19.69,0,0,0,6.11-6.09,13.89,13.89,0,0,0,2-7.33l.11,1.46a11.2,11.2,0,0,0-2.27-5.3,18.24,18.24,0,0,0-5.43-4.38,49.66,49.66,0,0,0-8.18-3.54c-3-1.06-6.24-2-9.58-2.9s-6.81-1.79-10.39-2.8a105.61,105.61,0,0,1-11.14-3.68,52.08,52.08,0,0,1-5.93-2.84,32.22,32.22,0,0,1-6.07-4.37,24.12,24.12,0,0,1-5.25-6.89,23.51,23.51,0,0,1-2.36-8.58c-.05-.7-.06-1.39-.08-2.09s0-1.36.09-2.05a25.6,25.6,0,0,1,.69-4.19,24.24,24.24,0,0,1,3.55-7.8,28.17,28.17,0,0,1,5.46-5.81,35.43,35.43,0,0,1,6-3.89,53.08,53.08,0,0,1,12.12-4.33,82.88,82.88,0,0,1,11.85-1.84,108.25,108.25,0,0,1,23.26.62,83.67,83.67,0,0,1,11.69,2.39c1,.29,2,.59,3,.95a14.37,14.37,0,0,1,3,1.37,12.37,12.37,0,0,1,2.79,2.35,10.25,10.25,0,0,1,2.15,3.72,2.38,2.38,0,0,1-.57,2.38Z" transform="translate(-46 -46)"/>
    </g>
    <path id="Dot" class="cls-2" d="M248.29,232.14c4.4,0,14.28,2.15,14.67,9.78s-8.21,11-13.39,11c-8,0-10.84-7.63-10.84-13.31S243.89,232.14,248.29,232.14Z" transform="translate(-46 -46)"/>
    <path id="Dot-2" data-name="Dot" class="cls-2" d="M371.56,228.59c4.4,0,14.28,2.15,14.68,9.78s-8.22,11-13.4,11c-8,0-10.84-7.63-10.84-13.31S367.16,228.59,371.56,228.59Z" transform="translate(-46 -46)"/>
    <g id="_1" data-name="1">
      <g id="_1_Upper" data-name="1 Upper">
        <path class="cls-2" d="M168.12,275.28a14.14,14.14,0,0,1,3-2.88,15.77,15.77,0,0,1,3.13-1.75q3.18-1.36,6.37-2.57c1.06-.4,2.13-.79,3.2-1.14s2.13-.73,3.21-1a54.74,54.74,0,0,1,6.47-1.64,9.39,9.39,0,1,1,3.42,18.47,10.63,10.63,0,0,1-1.37.15,57.34,57.34,0,0,1-6.67-.19c-1.12-.07-2.24-.19-3.36-.32s-2.25-.25-3.37-.41q-3.37-.48-6.78-1.13a15.58,15.58,0,0,1-3.44-1,14.25,14.25,0,0,1-3.56-2.15A1.74,1.74,0,0,1,168.12,275.28Z" transform="translate(-46 -46)"/>
      </g>
      <g id="_1_Lower" data-name="1 Lower">
        <path class="cls-2" d="M205.61,273.61q-.3,7-.41,14.11c-.11,4.71-.13,9.41-.16,14.12-.09,9.4,0,18.82,0,28.23s.09,18.82.17,28.23.2,18.82.37,28.23a10,10,0,1,1-20,.35c0-.17,0-.37,0-.55q.53-14.1.92-28.22c.28-9.41.54-18.81.73-28.22s.48-18.82.58-28.23c.06-4.7.14-9.4.11-14.11s0-9.41-.12-14.12a8.91,8.91,0,1,1,17.81-.39C205.62,273.22,205.62,273.43,205.61,273.61Z" transform="translate(-46 -46)"/>
      </g>
    </g>
    <g id="_3" data-name="3">
      <g id="_3_Lower" data-name="3 Lower">
        <path class="cls-2" d="M302.48,316.16a22.76,22.76,0,0,1,6,1.7,30.36,30.36,0,0,1,4.59,2.49,44.09,44.09,0,0,1,6.94,5.79,66.41,66.41,0,0,1,9.85,13.07,67.29,67.29,0,0,1,6.49,15,49.43,49.43,0,0,1,1.71,8.52,37.69,37.69,0,0,1-.15,9.52,28.05,28.05,0,0,1-3.65,10.19,25.81,25.81,0,0,1-8,8.11,31.52,31.52,0,0,1-9.4,3.94,43.26,43.26,0,0,1-8.88,1.19,76.24,76.24,0,0,1-16-1.28,138.73,138.73,0,0,1-14.59-3.54,10,10,0,0,1,5.68-19.18h0a117,117,0,0,0,12.4,3,56.78,56.78,0,0,0,11.67,1,17.14,17.14,0,0,0,8.25-2,5.86,5.86,0,0,0,1.72-1.72,8.06,8.06,0,0,0,.94-2.82,23,23,0,0,0-1-9.42,47.3,47.3,0,0,0-4.57-10.46,46.46,46.46,0,0,0-6.8-9.09,24.06,24.06,0,0,0-3.7-3.12,9.56,9.56,0,0,0-1.5-.83A5.93,5.93,0,0,0,300,336a10,10,0,0,1,2.52-19.84Z" transform="translate(-46 -46)"/>
      </g>
      <g id="_3_Upper" data-name="3 Upper">
        <path class="cls-2" d="M280.33,268.42l47.93-3.4A9.63,9.63,0,0,1,337,279.87l-.09.14-33.6,51.71-11.59-6.67,27.85-55,8.67,15-47.93-3.4Z" transform="translate(-46 -46)"/>
      </g>
    </g>
  </g>
</svg>
